<svg xmlns="http://www.w3.org/2000/svg" width="96" height="96" viewBox="0 0 96 96">
  <g id="Group_26583" data-name="Group 26583" transform="translate(-144 -686)">
    <circle id="Ellipse_2342" data-name="Ellipse 2342" cx="42" cy="42" r="42" transform="translate(150 692)" fill="#217a6e"/>
    <g id="Ellipse_2343" data-name="Ellipse 2343" transform="translate(144 686)" fill="none" stroke="#fff" stroke-width="2">
      <circle cx="48" cy="48" r="48" stroke="none"/>
      <circle cx="48" cy="48" r="47" fill="none"/>
    </g>
    <g id="Group_26573" data-name="Group 26573" transform="translate(169 711)">
      <path id="Path_121953" data-name="Path 121953" d="M0,0H45.9V45.9H0Z" fill="none"/>
      <path id="Path_121954" data-name="Path 121954" d="M6.592,9.214h1.8A3.535,3.535,0,0,0,11.98,5.738,1.768,1.768,0,0,1,13.777,4H24.553a1.768,1.768,0,0,1,1.8,1.738,3.535,3.535,0,0,0,3.592,3.476h1.8a3.535,3.535,0,0,1,3.592,3.476V28.33a3.535,3.535,0,0,1-3.592,3.476H6.592A3.535,3.535,0,0,1,3,28.33V12.689A3.535,3.535,0,0,1,6.592,9.214" transform="translate(3.786 5.048)" fill="none" stroke="#fff" stroke-linecap="round" stroke-linejoin="round" stroke-width="2"/>
      <circle id="Ellipse_2313" data-name="Ellipse 2313" cx="6.786" cy="6.786" r="6.786" transform="translate(16.165 17.961)" fill="none" stroke="#fff" stroke-linecap="round" stroke-linejoin="round" stroke-width="2"/>
    </g>
  </g>
</svg>
