<svg width="32" height="32" viewBox="0 0 32 32" fill="none" xmlns="http://www.w3.org/2000/svg">
<g clip-path="url(#clip0_1655_1870)">
<mask id="path-1-outside-1_1655_1870" maskUnits="userSpaceOnUse" x="5" y="-1" width="23" height="36" fill="black">
<rect fill="white" x="5" y="-1" width="23" height="36"/>
<path d="M16.6435 25.7167C15.3457 25.7167 14.0821 25.2602 13.0747 24.4266C11.7429 23.4231 10.6829 21.8574 9.92454 19.7825L9.43404 18.1189C9.38878 17.9642 9.22668 17.8773 9.07195 17.9228C8.91721 17.9681 8.83038 18.1302 8.8759 18.2849L9.37377 19.9675C9.38509 19.9978 9.3964 20.0278 9.40772 20.0617C8.43435 20.0088 7.6007 19.0696 7.13675 18.1831C6.53309 17.0287 6.40495 15.7913 6.83491 15.1727C7.0878 14.8066 7.53646 14.6595 8.16276 14.735H8.18908H8.19671H8.20434C8.22329 14.735 8.24197 14.7314 8.25723 14.7274H8.26487H8.26855C8.27223 14.7274 8.27618 14.7274 8.27986 14.7237C8.34776 14.7087 8.41196 14.6898 8.47986 14.6708C8.52144 14.6672 8.55907 14.6595 8.59301 14.6406C13.3955 13.343 16.1798 9.86864 16.7039 9.15921C16.7378 9.17816 16.7681 9.19685 16.802 9.21579C17.5604 9.62315 18.3638 9.95156 19.1372 10.2721C19.8463 10.5626 20.5745 10.8644 21.261 11.2189C23.0115 12.1244 24.0867 13.1617 24.5469 14.384C24.5469 14.3877 24.5506 14.3877 24.5506 14.3917C24.5543 14.3993 24.5582 14.4067 24.5619 14.418C24.5656 14.4256 24.5696 14.433 24.5769 14.4406C24.5806 14.4482 24.5846 14.4556 24.5919 14.4632C24.5919 14.4669 24.5956 14.4669 24.5956 14.4709C24.5993 14.4746 24.6069 14.4822 24.6106 14.4859C24.6182 14.4935 24.6256 14.5009 24.6296 14.5048C24.6372 14.5085 24.6446 14.5161 24.6485 14.5198C24.6522 14.5235 24.6561 14.5235 24.6561 14.5274C24.6598 14.5311 24.6675 14.5351 24.6711 14.5351C24.6788 14.5388 24.6861 14.5427 24.6938 14.5464C24.7014 14.5501 24.7127 14.554 24.7201 14.5577H24.7238C24.7275 14.5577 24.7275 14.5614 24.7314 14.5614C24.7351 14.5614 24.7427 14.5651 24.7464 14.5651C24.7577 14.5688 24.7653 14.5688 24.7767 14.5727C24.7803 14.5727 24.788 14.5764 24.7917 14.5764H24.8143H24.8332C24.8596 14.5764 24.8861 14.5688 24.9088 14.5614H24.9164H24.9201C24.9238 14.5614 24.9238 14.5577 24.9238 14.5577C24.9238 14.5577 24.9274 14.5577 24.9274 14.554C24.9351 14.5503 24.9464 14.5464 24.9538 14.539C24.9614 14.5353 24.9688 14.5277 24.9764 14.524C24.984 14.5203 24.9914 14.5127 24.999 14.5051C25.0027 14.5051 25.0027 14.5014 25.0067 14.5014C25.0067 14.5014 25.0103 14.5014 25.0103 14.4977C25.014 14.494 25.018 14.4901 25.0217 14.4864C25.0293 14.4788 25.033 14.4714 25.0406 14.4675C25.0482 14.4598 25.0519 14.4525 25.0556 14.4448C25.0593 14.4372 25.0632 14.4298 25.0706 14.4222C25.0706 14.4185 25.0743 14.4185 25.0743 14.4146C25.078 14.4069 25.078 14.4032 25.0819 14.3956C25.0856 14.388 25.0895 14.3767 25.0895 14.3693C25.0932 14.3617 25.0932 14.3504 25.0972 14.343C25.1053 14.3277 25.1053 14.3201 25.1053 14.3088V14.3051V14.2938C25.7503 6.33046 20.6386 4.39436 20.5897 4.37617C20.4389 4.32328 20.2729 4.3988 20.2163 4.54959C20.1597 4.70037 20.239 4.86642 20.3897 4.923C20.5558 4.98326 23.9586 6.30002 24.5057 11.4683C22.4873 6.43583 16.2325 6.4811 16.161 6.48844C15.999 6.49213 15.8742 6.62423 15.8742 6.78659C15.8779 6.94869 16.0063 7.07711 16.1724 7.07342C16.4742 7.06974 23.0235 7.02816 24.3209 12.849C23.6833 12.053 22.7591 11.3437 21.5255 10.7061C20.82 10.3401 20.0732 10.0346 19.3564 9.73666C18.5944 9.42352 17.8059 9.09906 17.0741 8.70671C14.2937 7.22048 12.5246 4.77948 10.9702 2.37641C12.5696 1.24857 14.5313 0.580701 16.6439 0.580701C22.0347 0.580701 26.4187 4.90027 26.4187 10.212C26.4187 12.0417 26.1585 13.1469 25.4303 14.441C25.3511 14.5805 25.4001 14.7579 25.5398 14.8371C25.5851 14.8634 25.634 14.8747 25.6832 14.8747C25.785 14.8747 25.8832 14.8218 25.9361 14.7276C26.8263 13.1508 27 11.8793 27 10.212C27 4.5796 22.3523 0 16.6445 0C14.317 0 12.1665 0.762042 10.435 2.04469C10.4274 2.04837 10.42 2.05232 10.4161 2.056C10.3934 2.071 10.3745 2.08627 10.3595 2.10495C7.8885 3.97226 6.28883 6.9111 6.28883 10.2118C6.28883 11.9319 6.32646 12.8751 7.09251 14.2671C6.7341 14.4066 6.50016 14.6332 6.35303 14.8442C5.71543 15.7684 6.02489 17.3228 6.62092 18.4546C7.3414 19.8277 8.41299 20.6503 9.49185 20.6503C9.5408 20.6503 9.58605 20.6353 9.62763 20.6164C10.3974 22.4687 11.4197 23.8947 12.6683 24.8491C12.7815 25.332 12.6986 28.1424 11.4197 30.4475C10.469 32.1604 9.09214 33.224 7.33039 33.6013C7.17197 33.6353 7.07382 33.79 7.10777 33.9484C7.13803 34.0842 7.25855 34.1784 7.39065 34.1784C7.4096 34.1784 7.43223 34.1747 7.45091 34.1708C11.1963 33.36 12.5165 29.9081 12.9731 27.92C13.1578 27.1203 13.2976 26.0488 13.2826 25.298C14.2786 25.9469 15.448 26.2977 16.6438 26.2977C16.8059 26.2977 16.9343 26.1656 16.9343 26.0072C16.938 25.8453 16.8056 25.7167 16.6435 25.7167ZM6.8728 10.2044C6.8728 7.18636 8.29119 4.4891 10.5058 2.71939C11.9808 5.00168 13.656 7.30687 16.1948 8.86471C15.6291 9.60048 13.0333 12.7087 8.77784 13.9803C9.00415 11.7131 11.0941 9.46474 11.1167 9.4421C11.2262 9.32526 11.2222 9.14027 11.1054 9.0308C10.9886 8.92133 10.8036 8.92528 10.6941 9.04211C10.5923 9.14764 8.30995 11.5999 8.18155 14.1464C8.17787 14.1464 8.17392 14.1464 8.17392 14.1501C8.00051 14.1312 7.83814 14.1275 7.69473 14.1388C6.90662 12.7773 6.8728 11.9322 6.8728 10.2044Z"/>
</mask>
<path d="M16.6435 25.7167C15.3457 25.7167 14.0821 25.2602 13.0747 24.4266C11.7429 23.4231 10.6829 21.8574 9.92454 19.7825L9.43404 18.1189C9.38878 17.9642 9.22668 17.8773 9.07195 17.9228C8.91721 17.9681 8.83038 18.1302 8.8759 18.2849L9.37377 19.9675C9.38509 19.9978 9.3964 20.0278 9.40772 20.0617C8.43435 20.0088 7.6007 19.0696 7.13675 18.1831C6.53309 17.0287 6.40495 15.7913 6.83491 15.1727C7.0878 14.8066 7.53646 14.6595 8.16276 14.735H8.18908H8.19671H8.20434C8.22329 14.735 8.24197 14.7314 8.25723 14.7274H8.26487H8.26855C8.27223 14.7274 8.27618 14.7274 8.27986 14.7237C8.34776 14.7087 8.41196 14.6898 8.47986 14.6708C8.52144 14.6672 8.55907 14.6595 8.59301 14.6406C13.3955 13.343 16.1798 9.86864 16.7039 9.15921C16.7378 9.17816 16.7681 9.19685 16.802 9.21579C17.5604 9.62315 18.3638 9.95156 19.1372 10.2721C19.8463 10.5626 20.5745 10.8644 21.261 11.2189C23.0115 12.1244 24.0867 13.1617 24.5469 14.384C24.5469 14.3877 24.5506 14.3877 24.5506 14.3917C24.5543 14.3993 24.5582 14.4067 24.5619 14.418C24.5656 14.4256 24.5696 14.433 24.5769 14.4406C24.5806 14.4482 24.5846 14.4556 24.5919 14.4632C24.5919 14.4669 24.5956 14.4669 24.5956 14.4709C24.5993 14.4746 24.6069 14.4822 24.6106 14.4859C24.6182 14.4935 24.6256 14.5009 24.6296 14.5048C24.6372 14.5085 24.6446 14.5161 24.6485 14.5198C24.6522 14.5235 24.6561 14.5235 24.6561 14.5274C24.6598 14.5311 24.6675 14.5351 24.6711 14.5351C24.6788 14.5388 24.6861 14.5427 24.6938 14.5464C24.7014 14.5501 24.7127 14.554 24.7201 14.5577H24.7238C24.7275 14.5577 24.7275 14.5614 24.7314 14.5614C24.7351 14.5614 24.7427 14.5651 24.7464 14.5651C24.7577 14.5688 24.7653 14.5688 24.7767 14.5727C24.7803 14.5727 24.788 14.5764 24.7917 14.5764H24.8143H24.8332C24.8596 14.5764 24.8861 14.5688 24.9088 14.5614H24.9164H24.9201C24.9238 14.5614 24.9238 14.5577 24.9238 14.5577C24.9238 14.5577 24.9274 14.5577 24.9274 14.554C24.9351 14.5503 24.9464 14.5464 24.9538 14.539C24.9614 14.5353 24.9688 14.5277 24.9764 14.524C24.984 14.5203 24.9914 14.5127 24.999 14.5051C25.0027 14.5051 25.0027 14.5014 25.0067 14.5014C25.0067 14.5014 25.0103 14.5014 25.0103 14.4977C25.014 14.494 25.018 14.4901 25.0217 14.4864C25.0293 14.4788 25.033 14.4714 25.0406 14.4675C25.0482 14.4598 25.0519 14.4525 25.0556 14.4448C25.0593 14.4372 25.0632 14.4298 25.0706 14.4222C25.0706 14.4185 25.0743 14.4185 25.0743 14.4146C25.078 14.4069 25.078 14.4032 25.0819 14.3956C25.0856 14.388 25.0895 14.3767 25.0895 14.3693C25.0932 14.3617 25.0932 14.3504 25.0972 14.343C25.1053 14.3277 25.1053 14.3201 25.1053 14.3088V14.3051V14.2938C25.7503 6.33046 20.6386 4.39436 20.5897 4.37617C20.4389 4.32328 20.2729 4.3988 20.2163 4.54959C20.1597 4.70037 20.239 4.86642 20.3897 4.923C20.5558 4.98326 23.9586 6.30002 24.5057 11.4683C22.4873 6.43583 16.2325 6.4811 16.161 6.48844C15.999 6.49213 15.8742 6.62423 15.8742 6.78659C15.8779 6.94869 16.0063 7.07711 16.1724 7.07342C16.4742 7.06974 23.0235 7.02816 24.3209 12.849C23.6833 12.053 22.7591 11.3437 21.5255 10.7061C20.82 10.3401 20.0732 10.0346 19.3564 9.73666C18.5944 9.42352 17.8059 9.09906 17.0741 8.70671C14.2937 7.22048 12.5246 4.77948 10.9702 2.37641C12.5696 1.24857 14.5313 0.580701 16.6439 0.580701C22.0347 0.580701 26.4187 4.90027 26.4187 10.212C26.4187 12.0417 26.1585 13.1469 25.4303 14.441C25.3511 14.5805 25.4001 14.7579 25.5398 14.8371C25.5851 14.8634 25.634 14.8747 25.6832 14.8747C25.785 14.8747 25.8832 14.8218 25.9361 14.7276C26.8263 13.1508 27 11.8793 27 10.212C27 4.5796 22.3523 0 16.6445 0C14.317 0 12.1665 0.762042 10.435 2.04469C10.4274 2.04837 10.42 2.05232 10.4161 2.056C10.3934 2.071 10.3745 2.08627 10.3595 2.10495C7.8885 3.97226 6.28883 6.9111 6.28883 10.2118C6.28883 11.9319 6.32646 12.8751 7.09251 14.2671C6.7341 14.4066 6.50016 14.6332 6.35303 14.8442C5.71543 15.7684 6.02489 17.3228 6.62092 18.4546C7.3414 19.8277 8.41299 20.6503 9.49185 20.6503C9.5408 20.6503 9.58605 20.6353 9.62763 20.6164C10.3974 22.4687 11.4197 23.8947 12.6683 24.8491C12.7815 25.332 12.6986 28.1424 11.4197 30.4475C10.469 32.1604 9.09214 33.224 7.33039 33.6013C7.17197 33.6353 7.07382 33.79 7.10777 33.9484C7.13803 34.0842 7.25855 34.1784 7.39065 34.1784C7.4096 34.1784 7.43223 34.1747 7.45091 34.1708C11.1963 33.36 12.5165 29.9081 12.9731 27.92C13.1578 27.1203 13.2976 26.0488 13.2826 25.298C14.2786 25.9469 15.448 26.2977 16.6438 26.2977C16.8059 26.2977 16.9343 26.1656 16.9343 26.0072C16.938 25.8453 16.8056 25.7167 16.6435 25.7167ZM6.8728 10.2044C6.8728 7.18636 8.29119 4.4891 10.5058 2.71939C11.9808 5.00168 13.656 7.30687 16.1948 8.86471C15.6291 9.60048 13.0333 12.7087 8.77784 13.9803C9.00415 11.7131 11.0941 9.46474 11.1167 9.4421C11.2262 9.32526 11.2222 9.14027 11.1054 9.0308C10.9886 8.92133 10.8036 8.92528 10.6941 9.04211C10.5923 9.14764 8.30995 11.5999 8.18155 14.1464C8.17787 14.1464 8.17392 14.1464 8.17392 14.1501C8.00051 14.1312 7.83814 14.1275 7.69473 14.1388C6.90662 12.7773 6.8728 11.9322 6.8728 10.2044Z" fill="#505050"/>
<path d="M16.6435 25.7167C15.3457 25.7167 14.0821 25.2602 13.0747 24.4266C11.7429 23.4231 10.6829 21.8574 9.92454 19.7825L9.43404 18.1189C9.38878 17.9642 9.22668 17.8773 9.07195 17.9228C8.91721 17.9681 8.83038 18.1302 8.8759 18.2849L9.37377 19.9675C9.38509 19.9978 9.3964 20.0278 9.40772 20.0617C8.43435 20.0088 7.6007 19.0696 7.13675 18.1831C6.53309 17.0287 6.40495 15.7913 6.83491 15.1727C7.0878 14.8066 7.53646 14.6595 8.16276 14.735H8.18908H8.19671H8.20434C8.22329 14.735 8.24197 14.7314 8.25723 14.7274H8.26487H8.26855C8.27223 14.7274 8.27618 14.7274 8.27986 14.7237C8.34776 14.7087 8.41196 14.6898 8.47986 14.6708C8.52144 14.6672 8.55907 14.6595 8.59301 14.6406C13.3955 13.343 16.1798 9.86864 16.7039 9.15921C16.7378 9.17816 16.7681 9.19685 16.802 9.21579C17.5604 9.62315 18.3638 9.95156 19.1372 10.2721C19.8463 10.5626 20.5745 10.8644 21.261 11.2189C23.0115 12.1244 24.0867 13.1617 24.5469 14.384C24.5469 14.3877 24.5506 14.3877 24.5506 14.3917C24.5543 14.3993 24.5582 14.4067 24.5619 14.418C24.5656 14.4256 24.5696 14.433 24.5769 14.4406C24.5806 14.4482 24.5846 14.4556 24.5919 14.4632C24.5919 14.4669 24.5956 14.4669 24.5956 14.4709C24.5993 14.4746 24.6069 14.4822 24.6106 14.4859C24.6182 14.4935 24.6256 14.5009 24.6296 14.5048C24.6372 14.5085 24.6446 14.5161 24.6485 14.5198C24.6522 14.5235 24.6561 14.5235 24.6561 14.5274C24.6598 14.5311 24.6675 14.5351 24.6711 14.5351C24.6788 14.5388 24.6861 14.5427 24.6938 14.5464C24.7014 14.5501 24.7127 14.554 24.7201 14.5577H24.7238C24.7275 14.5577 24.7275 14.5614 24.7314 14.5614C24.7351 14.5614 24.7427 14.5651 24.7464 14.5651C24.7577 14.5688 24.7653 14.5688 24.7767 14.5727C24.7803 14.5727 24.788 14.5764 24.7917 14.5764H24.8143H24.8332C24.8596 14.5764 24.8861 14.5688 24.9088 14.5614H24.9164H24.9201C24.9238 14.5614 24.9238 14.5577 24.9238 14.5577C24.9238 14.5577 24.9274 14.5577 24.9274 14.554C24.9351 14.5503 24.9464 14.5464 24.9538 14.539C24.9614 14.5353 24.9688 14.5277 24.9764 14.524C24.984 14.5203 24.9914 14.5127 24.999 14.5051C25.0027 14.5051 25.0027 14.5014 25.0067 14.5014C25.0067 14.5014 25.0103 14.5014 25.0103 14.4977C25.014 14.494 25.018 14.4901 25.0217 14.4864C25.0293 14.4788 25.033 14.4714 25.0406 14.4675C25.0482 14.4598 25.0519 14.4525 25.0556 14.4448C25.0593 14.4372 25.0632 14.4298 25.0706 14.4222C25.0706 14.4185 25.0743 14.4185 25.0743 14.4146C25.078 14.4069 25.078 14.4032 25.0819 14.3956C25.0856 14.388 25.0895 14.3767 25.0895 14.3693C25.0932 14.3617 25.0932 14.3504 25.0972 14.343C25.1053 14.3277 25.1053 14.3201 25.1053 14.3088V14.3051V14.2938C25.7503 6.33046 20.6386 4.39436 20.5897 4.37617C20.4389 4.32328 20.2729 4.3988 20.2163 4.54959C20.1597 4.70037 20.239 4.86642 20.3897 4.923C20.5558 4.98326 23.9586 6.30002 24.5057 11.4683C22.4873 6.43583 16.2325 6.4811 16.161 6.48844C15.999 6.49213 15.8742 6.62423 15.8742 6.78659C15.8779 6.94869 16.0063 7.07711 16.1724 7.07342C16.4742 7.06974 23.0235 7.02816 24.3209 12.849C23.6833 12.053 22.7591 11.3437 21.5255 10.7061C20.82 10.3401 20.0732 10.0346 19.3564 9.73666C18.5944 9.42352 17.8059 9.09906 17.0741 8.70671C14.2937 7.22048 12.5246 4.77948 10.9702 2.37641C12.5696 1.24857 14.5313 0.580701 16.6439 0.580701C22.0347 0.580701 26.4187 4.90027 26.4187 10.212C26.4187 12.0417 26.1585 13.1469 25.4303 14.441C25.3511 14.5805 25.4001 14.7579 25.5398 14.8371C25.5851 14.8634 25.634 14.8747 25.6832 14.8747C25.785 14.8747 25.8832 14.8218 25.9361 14.7276C26.8263 13.1508 27 11.8793 27 10.212C27 4.5796 22.3523 0 16.6445 0C14.317 0 12.1665 0.762042 10.435 2.04469C10.4274 2.04837 10.42 2.05232 10.4161 2.056C10.3934 2.071 10.3745 2.08627 10.3595 2.10495C7.8885 3.97226 6.28883 6.9111 6.28883 10.2118C6.28883 11.9319 6.32646 12.8751 7.09251 14.2671C6.7341 14.4066 6.50016 14.6332 6.35303 14.8442C5.71543 15.7684 6.02489 17.3228 6.62092 18.4546C7.3414 19.8277 8.41299 20.6503 9.49185 20.6503C9.5408 20.6503 9.58605 20.6353 9.62763 20.6164C10.3974 22.4687 11.4197 23.8947 12.6683 24.8491C12.7815 25.332 12.6986 28.1424 11.4197 30.4475C10.469 32.1604 9.09214 33.224 7.33039 33.6013C7.17197 33.6353 7.07382 33.79 7.10777 33.9484C7.13803 34.0842 7.25855 34.1784 7.39065 34.1784C7.4096 34.1784 7.43223 34.1747 7.45091 34.1708C11.1963 33.36 12.5165 29.9081 12.9731 27.92C13.1578 27.1203 13.2976 26.0488 13.2826 25.298C14.2786 25.9469 15.448 26.2977 16.6438 26.2977C16.8059 26.2977 16.9343 26.1656 16.9343 26.0072C16.938 25.8453 16.8056 25.7167 16.6435 25.7167ZM6.8728 10.2044C6.8728 7.18636 8.29119 4.4891 10.5058 2.71939C11.9808 5.00168 13.656 7.30687 16.1948 8.86471C15.6291 9.60048 13.0333 12.7087 8.77784 13.9803C9.00415 11.7131 11.0941 9.46474 11.1167 9.4421C11.2262 9.32526 11.2222 9.14027 11.1054 9.0308C10.9886 8.92133 10.8036 8.92528 10.6941 9.04211C10.5923 9.14764 8.30995 11.5999 8.18155 14.1464C8.17787 14.1464 8.17392 14.1464 8.17392 14.1501C8.00051 14.1312 7.83814 14.1275 7.69473 14.1388C6.90662 12.7773 6.8728 11.9322 6.8728 10.2044Z" stroke="#505050" stroke-width="0.4" mask="url(#path-1-outside-1_1655_1870)"/>
<path d="M14.1535 15.4032L14.1535 15.4031C14.3256 15.2714 14.5737 15.306 14.702 15.4791C14.8322 15.6503 14.8024 15.8936 14.6301 16.0257L14.1535 15.4032ZM14.1535 15.4032C13.4888 15.913 12.7509 15.9225 12.1616 15.7946C11.5723 15.6668 11.1427 15.4035 11.1105 15.3831C10.9282 15.2668 10.6849 15.3218 10.5721 15.505L14.1535 15.4032Z" fill="#505050" stroke="#505050" stroke-width="0.2"/>
<path d="M18.7189 15.9423L18.6579 16.0216C19.2663 16.4896 19.9113 16.646 20.4996 16.646C21.6145 16.646 22.5258 16.0871 22.5952 16.0414C22.7754 15.9256 22.8325 15.6878 22.7159 15.5045C22.6016 15.3194 22.3583 15.2721 22.1788 15.3817L22.1788 15.3817L22.1774 15.3826C22.1465 15.4021 21.7165 15.6661 21.1261 15.7942C20.5368 15.922 19.7989 15.9125 19.1342 15.4027L19.1342 15.4027C18.9629 15.2715 18.7186 15.3011 18.5865 15.4743M18.7189 15.9423L18.6583 16.0218C18.4851 15.8898 18.4554 15.6455 18.5865 15.4743M18.7189 15.9423C19.3073 16.3949 19.9299 16.546 20.4996 16.546C21.5899 16.546 22.484 15.9952 22.5406 15.9576M18.7189 15.9423L22.5406 15.9576M18.5865 15.4743C18.5865 15.4743 18.5865 15.4743 18.5865 15.4743L18.666 15.535L18.5866 15.4742C18.5866 15.4742 18.5866 15.4742 18.5865 15.4743ZM22.5406 15.9576C22.6764 15.8707 22.718 15.6934 22.6312 15.5576C22.5477 15.4218 22.3666 15.3842 22.2309 15.4671L22.5406 15.9576Z" fill="#505050" stroke="#505050" stroke-width="0.2"/>
<path d="M20.7959 24.3494L20.7959 24.3495C19.8063 25.1684 18.5653 25.6167 17.2908 25.6167C17.2763 25.6167 17.2544 25.6158 17.2271 25.6147C17.1303 25.6106 16.9658 25.6036 16.8201 25.625C16.7252 25.6389 16.6234 25.6661 16.5431 25.7227C16.4575 25.7832 16.4 25.875 16.4 26C16.4 26.1247 16.4572 26.217 16.5419 26.2786C16.6216 26.3367 16.7231 26.3661 16.8181 26.3819C16.9697 26.4072 17.1385 26.402 17.2348 26.399C17.2581 26.3983 17.2771 26.3977 17.2906 26.3977C18.4442 26.3977 19.5737 26.0764 20.5511 25.4797C20.5589 26.2224 20.6917 27.1956 20.8627 27.9374C21.07 29.6034 22.4755 33.1906 26.4574 34.2673L26.4628 34.2688L26.4628 34.2686C26.4835 34.273 26.5142 34.2784 26.5437 34.2784C26.7229 34.2784 26.8838 34.1515 26.9242 33.9702L26.9244 33.9694L26.9244 33.9694C26.9697 33.758 26.8384 33.5493 26.6249 33.5036L26.6118 33.5007L26.5983 33.5015C26.2646 33.5203 25.896 33.4096 25.5136 33.207C25.132 33.0049 24.744 32.7152 24.374 32.3869C23.6358 31.732 22.979 30.9321 22.5995 30.3943C21.9692 29.2564 21.6322 27.9917 21.4671 26.9493C21.3845 26.4278 21.3452 25.9634 21.3335 25.6002C21.3228 25.2675 21.3355 25.0271 21.3567 24.9056C22.609 23.9381 23.6306 22.5041 24.3991 20.6547L24.3997 20.6532L24.3997 20.6532L24.6196 20.0986L24.6217 20.0934L24.6215 20.0934C24.6315 20.0635 24.6415 20.0368 24.6521 20.0083L24.6521 20.0083L24.6543 20.0026L24.6567 19.996L24.6565 19.9959L25.1544 18.3133L25.1544 18.3131C25.1618 18.288 25.1764 18.2169 25.1951 18.1201C25.2143 18.0203 25.239 17.8864 25.2669 17.7303C25.3226 17.418 25.391 17.0158 25.4531 16.6168C25.5152 16.2182 25.5713 15.8215 25.6022 15.5208C25.6175 15.371 25.627 15.2422 25.6273 15.1482C25.6275 15.1019 25.6255 15.0592 25.6195 15.0252C25.6166 15.0086 25.6117 14.9883 25.6024 14.9692C25.5941 14.9522 25.573 14.9172 25.5282 14.9041C25.5282 14.9041 25.5281 14.904 25.5281 14.904L25.5 15C25.4844 14.9954 25.4621 15.022 25.4348 15.0737L20.7959 24.3494ZM20.7959 24.3494L20.7995 24.3467C22.111 23.3586 23.161 21.8123 23.9148 19.7511L20.7959 24.3494Z" fill="#505050" stroke="#505050" stroke-width="0.2"/>
</g>
<defs>
<clipPath id="clip0_1655_1870">
<rect width="32" height="32" fill="white"/>
</clipPath>
</defs>
</svg>
