<svg width="30" height="32" viewBox="0 0 30 32" fill="none" xmlns="http://www.w3.org/2000/svg">
<path d="M23.0575 3.52021L23.0576 3.52C23.2925 3.64363 23.4172 3.92083 23.3649 4.1818C23.2996 4.44671 23.0639 4.62924 22.7927 4.62924H17.3641H17.3141V4.67924V7.13096V7.18096H17.3641H19.2077C19.5321 7.18096 19.7977 7.44659 19.7977 7.77102V10.338V10.3815L19.8408 10.3875C21.4618 10.6145 22.7167 12.0021 22.7167 13.6859V28.6009C22.7167 30.4487 21.2157 31.95 19.3676 31.95H10.3991C8.55128 31.95 7.05 30.449 7.05 28.6009V13.6859C7.05 12.0024 8.30478 10.6145 9.92595 10.3875L9.96901 10.3815V10.338V7.77102C9.96901 7.44659 10.2346 7.18096 10.5591 7.18096H12.4026H12.4526V7.13096V4.67924V4.62924H12.4026H10.5591C10.2346 4.62924 9.96901 4.36361 9.96901 4.03918V0.640058C9.96901 0.315627 10.2346 0.05 10.5591 0.05C14.4371 0.05 18.3083 1.00824 21.7388 2.82253L23.0575 3.52021ZM8.27422 16.8499H8.22422V16.8999V25.4013V25.4513H8.27422H14.2341H14.2841V25.4013V16.8999V16.8499H14.2341H8.27422ZM21.5239 13.6865V13.5661L21.5204 13.5695C21.4593 12.431 20.5142 11.5242 19.3613 11.5239H10.3928C9.19341 11.5239 8.2238 12.5003 8.2238 13.6929V15.6198V15.6698L8.2738 15.6698L14.8738 15.6701C15.1982 15.6701 15.4638 15.9357 15.4638 16.2601L15.4635 26.0414C15.4635 26.3658 15.1979 26.6315 14.8735 26.6315H8.27353H8.22353V26.6815V28.6084C8.22353 29.8077 9.19986 30.7774 10.3925 30.7774H19.3549C20.5542 30.7774 21.5239 29.801 21.5239 28.6084V13.6865ZM11.1493 10.2935V10.3435H11.1993H18.5546H18.5608H18.6108V10.2935V8.41142V8.36142H18.5608H11.1993H11.1493V8.41142V10.2935ZM16.071 7.18131H16.121V7.13131V4.67958V4.62958H16.071H13.6769H13.6269V4.67958V7.13131V7.18131H13.6769H16.071ZM11.143 3.39919V3.44919H11.193H16.7111H20.1293L20.1503 3.35385C17.3471 2.05133 14.2869 1.3266 11.1945 1.23665L11.143 1.23516V1.28663V3.39919Z" fill="#505050" stroke="#F8F8F8" stroke-width="0.1"/>
</svg>
