<svg width="30" height="32" viewBox="0 0 30 32" fill="none" xmlns="http://www.w3.org/2000/svg">
<path d="M13.3298 22.1377V22.1377C13.3298 21.8831 13.1363 21.6896 12.8817 21.6896H9.74778C9.33383 21.6896 8.99699 21.3527 8.99699 20.9388V17.8048C8.99699 17.5503 8.80347 17.3568 8.54891 17.3568C8.29435 17.3568 8.10082 17.5503 8.10082 17.8048V20.9559C8.10082 21.8546 8.83187 22.5857 9.73056 22.5857H12.8816C13.1361 22.5857 13.3296 22.3921 13.3298 22.1377Z" fill="#505050" stroke="#505050" stroke-width="0.1"/>
<path d="M20.2869 22.5685L20.2874 22.5685C20.7109 22.5639 21.1116 22.3921 21.4173 22.0843C21.7283 21.7712 21.8999 21.3583 21.9 20.9218V17.7879C21.9 17.5333 21.7065 17.3398 21.4519 17.3398C21.1973 17.3398 21.0038 17.5333 21.0038 17.7879V20.9215C21.0038 21.3354 20.667 21.6723 20.253 21.6723H17.1191C16.8645 21.6723 16.671 21.8658 16.671 22.1204C16.671 22.3749 16.8645 22.5685 17.1191 22.5685H20.2702L20.2869 22.5685Z" fill="#505050" stroke="#505050" stroke-width="0.1"/>
<path d="M8.53738 14.2247L8.53738 14.2247C8.2884 14.2189 8.10082 14.0273 8.10082 13.7768V10.6428C8.10082 9.74414 8.83187 9.01309 9.73056 9.01309H12.8645C13.1191 9.01309 13.3126 9.20661 13.3126 9.46117C13.3126 9.71574 13.1191 9.90926 12.8645 9.90926L9.73056 9.90914L8.53738 14.2247ZM8.53738 14.2247H8.53853M8.53738 14.2247H8.53853M8.53853 14.2247H8.54891C8.67056 14.2247 8.78828 14.1735 8.87226 14.0845C8.94694 14.0053 8.98607 13.9042 8.97994 13.7997L8.97994 13.7997M8.53853 14.2247L8.97994 13.7997M8.97994 13.7997L8.97977 13.7968V13.7939V10.6599C8.97977 10.246 9.31661 9.90914 9.73056 9.90914L8.97994 13.7997Z" fill="#505050" stroke="#505050" stroke-width="0.1"/>
<path d="M21.4229 14.2249L21.4229 14.2249L21.8154 13.7675L21.8653 13.765L21.8653 13.7649L21.8652 13.7624V13.7597V10.6257C21.8652 9.72709 21.1342 8.99608 20.2356 8.99608H17.1016C16.8471 8.99608 16.6535 9.18961 16.6535 9.44417C16.6535 9.69873 16.8471 9.89226 17.1016 9.89226H20.2356C20.6495 9.89226 20.9863 10.2291 20.9863 10.643V13.777C20.9863 14.0276 21.1739 14.2192 21.4229 14.2249Z" fill="#505050" stroke="#505050" stroke-width="0.1"/>
<path d="M14.5539 11.9C13.6055 11.9 12.8513 12.7434 12.8513 13.7618C12.8513 14.7803 13.6055 15.6237 14.5539 15.6237C15.5024 15.6237 16.2565 14.7803 16.2565 13.7618C16.2565 12.7434 15.5024 11.9 14.5539 11.9ZM14.5539 12.4203C15.2137 12.4203 15.7652 13.0124 15.7652 13.7619C15.7652 14.5113 15.2137 15.1034 14.5539 15.1034C13.8942 15.1034 13.3427 14.5113 13.3427 13.7619C13.3427 13.0124 13.8942 12.4203 14.5539 12.4203Z" fill="#505050" stroke="#505050" stroke-width="0.2"/>
<path d="M17.4222 18.667H17.4222V18.567C17.4222 17.8212 17.1528 17.1043 16.6707 16.5742L16.6707 16.5742C16.1884 16.044 15.532 15.7441 14.8453 15.7441H14.2626C13.5759 15.7441 12.9195 16.044 12.4371 16.5742L12.4371 16.5742C11.955 17.1042 11.6856 17.8211 11.6856 18.567V18.8873C11.6856 19.1989 11.9174 19.4679 12.2227 19.4679H16.8851C17.1904 19.4679 17.4222 19.1989 17.4222 18.8873V18.667ZM16.9307 18.567V18.667H16.9308V18.8873C16.9308 18.9297 16.9016 18.9475 16.8851 18.9475H12.2228C12.2063 18.9475 12.1771 18.9297 12.1771 18.8873V18.567C12.1771 17.9535 12.3989 17.3666 12.7911 16.9353C13.1831 16.5045 13.7127 16.2644 14.2626 16.2644H14.8453C15.3951 16.2644 15.9247 16.5045 16.3167 16.9353C16.709 17.3666 16.9307 17.9535 16.9307 18.567Z" fill="#505050" stroke="#505050" stroke-width="0.2"/>
<path fill-rule="evenodd" clip-rule="evenodd" d="M21.3144 30.9999H8.68537C8.10233 30.9981 7.53743 30.8198 7.083 30.494C6.62831 30.1681 6.31091 29.7142 6.18256 29.2062H23.8177C23.6896 29.7142 23.3722 30.1684 22.9175 30.4942C22.4628 30.82 21.8974 30.9983 21.3144 30.9999ZM8.68537 0.999847C8.0046 1.00076 7.35244 1.24245 6.87097 1.67246C6.38974 2.1025 6.119 2.6855 6.11828 3.29362V28.2054H23.8815V3.29362C23.8804 2.6855 23.6097 2.10249 23.1288 1.67264C22.6475 1.2426 21.9951 1.00066 21.3146 0.999788H18.1045V1.63435C18.1042 1.92369 17.9756 2.20096 17.7467 2.40549C17.5179 2.61002 17.2076 2.72517 16.8841 2.7254H13.1164C12.7926 2.72517 12.4823 2.61002 12.2534 2.40549C12.0246 2.20096 11.8957 1.9237 11.8955 1.63435V0.999788L8.68537 0.999847ZM13.0136 0.999847H16.9861V1.6344C16.9851 1.68457 16.9399 1.72493 16.8841 1.72561H13.1164C13.0603 1.72515 13.0148 1.68457 13.0138 1.6344L13.0136 0.999847ZM21.3145 0H8.6855C7.70824 0.000912056 6.77129 0.348175 6.08059 0.965641C5.38963 1.5831 5.00105 2.42038 5 3.29367V28.7063C5.00128 29.5796 5.38988 30.4167 6.08059 31.0341C6.77155 31.6516 7.70824 31.9988 8.6855 32H21.3145C22.2918 31.9991 23.2284 31.6516 23.9194 31.0341C24.6104 30.4167 24.999 29.5796 25 28.7063V3.29367C24.999 2.42038 24.6104 1.5831 23.9194 0.965641C23.2287 0.348186 22.2918 0.000933945 21.3145 0Z" fill="#505050"/>
</svg>
