<svg id="Group_26550" data-name="Group 26550" xmlns="http://www.w3.org/2000/svg" width="41.943" height="41.943" viewBox="0 0 41.943 41.943">
  <path id="Path_121961" data-name="Path 121961" d="M0,0H41.943V41.943H0Z" fill="none"/>
  <path id="Path_121962" data-name="Path 121962" d="M3,17.873H4.779M19.014,3V4.653m14.235,13.22h1.779M7.626,7.3,8.872,8.453M30.4,7.3,29.156,8.453" transform="translate(1.958 1.958)" fill="none" stroke="#fff96c" stroke-linecap="round" stroke-linejoin="round" stroke-width="1.5"/>
  <path id="Path_121963" data-name="Path 121963" d="M10.305,21.873a8.263,8.263,0,1,1,9.915,0,5.784,5.784,0,0,0-1.653,4.958,3.305,3.305,0,1,1-6.61,0,5.784,5.784,0,0,0-1.653-4.958" transform="translate(5.709 6.85)" fill="none" stroke="#fff96c" stroke-linecap="round" stroke-linejoin="round" stroke-width="1.5"/>
  <line id="Line_845" data-name="Line 845" x2="7.602" transform="translate(17.171 29.71)" fill="none" stroke="#fff96c" stroke-linecap="round" stroke-linejoin="round" stroke-width="1.5"/>
</svg>
