<svg xmlns="http://www.w3.org/2000/svg" width="25.455" height="32.36" viewBox="0 0 25.455 32.36">
  <g id="Group_26551" data-name="Group 26551" transform="translate(-296.251 -495.956)">
    <path id="Path_121968" data-name="Path 121968" d="M91.117,328.365h8.321a.8.8,0,0,0,.8-.8V315.154H90.313v12.407a.8.8,0,0,0,.8.8Zm0,0" transform="translate(206.687 199.201)" fill="none" stroke="#ff6c6c" stroke-linecap="round" stroke-linejoin="round" stroke-width="1.5"/>
    <path id="Path_121969" data-name="Path 121969" d="M302.231,328.365h9.017a.8.8,0,0,0,.8-.8V315.154H301.427v12.407a.8.8,0,0,0,.8.8Zm0,0" transform="translate(8.904 199.201)" fill="none" stroke="#ff6c6c" stroke-linecap="round" stroke-linejoin="round" stroke-width="1.5"/>
    <path id="Path_121970" data-name="Path 121970" d="M0,0H7.338V9.255H0ZM0,0" transform="translate(319.311 514.355) rotate(180)" fill="none" stroke="#ff6c6c" stroke-linecap="round" stroke-linejoin="round" stroke-width="1.5"/>
    <path id="Path_121971" data-name="Path 121971" d="M344.936,44.031h5.131V35.637l-5.131,4.2Zm0,0" transform="translate(-31.857 461.069)" fill="none" stroke="#ff6c6c" stroke-linecap="round" stroke-linejoin="round" stroke-width="1.5"/>
  </g>
</svg>
