<svg id="Group_26540" data-name="Group 26540" xmlns="http://www.w3.org/2000/svg" width="24" height="24" viewBox="0 0 24 24">
  <path id="Path_121955" data-name="Path 121955" d="M0,0H24V24H0Z" fill="none"/>
  <path id="Path_121956" data-name="Path 121956" d="M8.29,4.3A1,1,0,0,1,9,4h6a1,1,0,0,1,1,1,2,2,0,0,0,2,2h1a2,2,0,0,1,2,2v8m-1.179,2.824A1.988,1.988,0,0,1,19,20H5a2,2,0,0,1-2-2V9A2,2,0,0,1,5,7H6a1.977,1.977,0,0,0,.818-.175" fill="none" stroke="#fff" stroke-linecap="round" stroke-linejoin="round" stroke-width="1.5"/>
  <path id="Path_121957" data-name="Path 121957" d="M10.436,10.44a3,3,0,1,0,4.126,4.122" fill="none" stroke="#fff" stroke-linecap="round" stroke-linejoin="round" stroke-width="1.5"/>
  <line id="Line_841" data-name="Line 841" x2="18" y2="18" transform="translate(3 3)" fill="none" stroke="#fff" stroke-linecap="round" stroke-linejoin="round" stroke-width="1.5"/>
</svg>
